<svg width="1500" height="1500" viewBox="0 0 1500 1500" fill="none" xmlns="http://www.w3.org/2000/svg">
<path d="M629.327 1335.79C681.122 1335.79 734.571 1329.72 789.673 1317.6C845.878 1305.47 895.469 1285.63 938.449 1258.08C982.531 1230.52 1004.57 1199.11 1004.57 1163.84C1004.57 1158.33 1004.02 1153.37 1002.92 1148.96C997.408 1112.58 970.959 1082.27 923.571 1058.02C876.184 1033.77 821.082 1013.38 758.265 996.849C696.551 979.214 634.837 959.924 573.122 938.982C512.51 918.04 460.714 886.626 417.735 844.741C375.857 802.856 354.918 750.5 354.918 687.673C354.918 607.21 376.959 532.809 421.041 464.47C466.224 395.03 524.082 337.713 594.612 292.522C666.245 246.228 741.735 208.201 821.082 178.441C901.531 148.68 981.98 128.84 1062.43 118.92C1109.82 112.307 1154.45 109 1196.33 109C1384.78 109 1479 171.276 1479 295.829C1479 360.86 1448.14 423.688 1386.43 484.311C1324.71 544.933 1252.53 575.245 1169.88 575.245C1162.16 575.245 1156.1 574.143 1151.69 571.938C1148.39 568.631 1146.73 565.325 1146.73 562.018C1146.73 559.814 1147.29 557.609 1148.39 555.405C1149.49 552.098 1151.14 549.893 1153.35 548.791C1156.65 546.587 1159.96 544.933 1163.27 543.831C1166.57 542.729 1170.43 542.178 1174.84 542.178C1231.04 542.178 1284.49 521.235 1335.18 479.351C1385.88 436.363 1411.22 383.456 1411.22 320.629C1411.22 288.664 1404.06 261.659 1389.73 239.615C1376.51 216.468 1357.78 198.832 1333.53 186.707C1309.29 173.481 1282.84 164.112 1254.18 158.6C1226.63 153.089 1196.33 150.334 1163.27 150.334C1146.73 150.334 1130.2 150.885 1113.67 151.987C1098.24 153.089 1082.82 154.743 1067.39 156.947C962.694 170.174 864.061 197.179 771.49 237.961C680.02 277.642 602.878 333.856 540.061 406.603C477.245 478.248 445.837 558.16 445.837 646.339C445.837 699.246 460.714 744.989 490.469 783.567C520.224 821.043 557.143 848.599 601.224 866.235C646.408 883.87 695.449 900.955 748.347 917.488C801.245 934.022 850.837 947.8 897.122 958.822C944.51 969.845 985.286 986.929 1019.45 1010.08C1053.61 1033.22 1073.45 1061.33 1078.96 1094.4L1080.61 1114.24C1080.61 1159.43 1055.82 1203.52 1006.22 1246.51C957.735 1289.49 893.816 1324.21 814.469 1350.67C735.122 1378.22 653.571 1392 569.816 1392C457.408 1392 401.204 1351.22 401.204 1269.65C401.204 1225.56 416.082 1203.52 445.837 1203.52C449.143 1203.52 451.898 1207.38 454.102 1215.09C456.306 1221.7 459.061 1231.07 462.367 1243.2C465.673 1254.22 469.531 1263.59 473.939 1271.31C481.653 1284.53 490.469 1295.55 500.388 1304.37C511.408 1313.19 523.531 1319.8 536.755 1324.21C549.98 1328.62 563.755 1331.38 578.082 1332.48C593.51 1334.68 610.592 1335.79 629.327 1335.79Z" fill="#12141e"/>
<path d="M870.673 1335.79C818.877 1335.79 765.429 1329.72 710.326 1317.6C654.122 1305.47 604.531 1285.63 561.551 1258.08C517.469 1230.52 495.429 1199.11 495.429 1163.84C495.429 1158.33 495.98 1153.37 497.082 1148.96C502.592 1112.58 529.041 1082.27 576.429 1058.02C623.816 1033.77 678.918 1013.38 741.735 996.849C803.449 979.214 865.163 959.924 926.877 938.982C987.49 918.04 1039.29 886.626 1082.27 844.741C1124.14 802.856 1145.08 750.5 1145.08 687.673C1145.08 607.21 1123.04 532.809 1078.96 464.47C1033.78 395.03 975.918 337.713 905.388 292.522C833.755 246.228 758.265 208.201 678.918 178.441C598.469 148.68 518.02 128.84 437.571 118.92C390.184 112.307 345.551 109 303.673 109C115.224 109 21 171.276 21 295.829C21 360.86 51.8571 423.688 113.571 484.311C175.286 544.933 247.469 575.245 330.122 575.245C337.837 575.245 343.898 574.143 348.306 571.938C351.612 568.631 353.265 565.325 353.265 562.018C353.265 559.814 352.714 557.609 351.612 555.405C350.51 552.098 348.857 549.893 346.653 548.791C343.347 546.587 340.041 544.933 336.735 543.831C333.429 542.729 329.571 542.178 325.163 542.178C268.959 542.178 215.51 521.235 164.816 479.351C114.122 436.363 88.7754 383.456 88.7754 320.629C88.7754 288.664 95.9387 261.659 110.265 239.615C123.49 216.468 142.224 198.832 166.469 186.707C190.714 173.481 217.163 164.112 245.816 158.6C273.367 153.089 303.673 150.334 336.735 150.334C353.265 150.334 369.796 150.885 386.326 151.987C401.755 153.089 417.184 154.743 432.612 156.947C537.306 170.174 635.939 197.179 728.51 237.961C819.98 277.642 897.122 333.856 959.939 406.603C1022.76 478.248 1054.16 558.16 1054.16 646.339C1054.16 699.246 1039.29 744.989 1009.53 783.567C979.775 821.043 942.857 848.599 898.775 866.235C853.592 883.87 804.551 900.955 751.653 917.488C698.755 934.022 649.163 947.8 602.878 958.822C555.49 969.845 514.714 986.929 480.551 1010.08C446.388 1033.22 426.551 1061.33 421.041 1094.4L419.388 1114.24C419.388 1159.43 444.184 1203.52 493.775 1246.51C542.265 1289.49 606.184 1324.21 685.531 1350.67C764.877 1378.22 846.429 1392 930.184 1392C1042.59 1392 1098.8 1351.22 1098.8 1269.65C1098.8 1225.56 1083.92 1203.52 1054.16 1203.52C1050.86 1203.52 1048.1 1207.38 1045.9 1215.09C1043.69 1221.7 1040.94 1231.07 1037.63 1243.2C1034.33 1254.22 1030.47 1263.59 1026.06 1271.31C1018.35 1284.53 1009.53 1295.55 999.612 1304.37C988.592 1313.19 976.469 1319.8 963.245 1324.21C950.02 1328.62 936.245 1331.38 921.918 1332.48C906.49 1334.68 889.408 1335.79 870.673 1335.79Z" fill="#12141e"/>
</svg>
